<svg id="Grupo_1567" data-name="Grupo 1567" xmlns="http://www.w3.org/2000/svg" xmlns:xlink="http://www.w3.org/1999/xlink" width="174.106" height="27.402" viewBox="0 0 174.106 27.402">
  <defs>
    <clipPath id="clip-path">
      <rect id="Rectángulo_4532" data-name="Rectángulo 4532" width="174.106" height="27.402" fill="#4a503b"/>
    </clipPath>
  </defs>
  <g id="Grupo_1567-2" data-name="Grupo 1567" clip-path="url(#clip-path)">
    <path id="Trazado_1504" data-name="Trazado 1504" d="M120.92,14.839a10.305,10.305,0,0,1-4.074,8.215,5.768,5.768,0,0,0,9.129,0,10.312,10.312,0,0,1-4.071-8.214h2.108a8.2,8.2,0,0,0,2.939,6.295,5.771,5.771,0,0,0,.228-1.606V8.152H115.643V19.528a5.781,5.781,0,0,0,.228,1.607,8.192,8.192,0,0,0,2.941-6.3Zm-7.386,4.686V6.043h15.753l0,13.485a7.876,7.876,0,0,1-15.751,0m5.568-5.933a6.225,6.225,0,0,1,1.257-.345l-1.265-3.266a9.688,9.688,0,0,0-1.242.39Zm2.966-.4a6.657,6.657,0,0,0-1.3,0V9.236h1.3Zm2.89-2.827a9.751,9.751,0,0,0-1.237-.387l-1.268,3.266a6.305,6.305,0,0,1,1.26.344Zm-9.283-5.6a15.886,15.886,0,0,1,11.472,0L128.5,1.3a18.97,18.97,0,0,0-2.006-.659L126.072,2.2a17.776,17.776,0,0,0-1.813-.387L124.513.22a19.534,19.534,0,0,0-2.1-.22l-.084,1.612c-.3-.015-.613-.023-.922-.023-.324,0-.645.008-.964.025L120.358,0a19.653,19.653,0,0,0-2.1.224l.259,1.594a17.818,17.818,0,0,0-1.775.381l-.419-1.56a19.244,19.244,0,0,0-2,.656Z" transform="translate(-36.372)" fill="#4a503b" fill-rule="evenodd"/>
    <path id="Trazado_1505" data-name="Trazado 1505" d="M148.294,15.16v2.56h1.369V16.654h2.006v7.7h1.6v-7.7h1.987V17.72h1.369V15.16Zm45.325,3.614h-2.165V16.5h2.19l.267,0a1.139,1.139,0,0,1,0,2.278Zm3.486,5.57-2.322-4.26a2.487,2.487,0,0,0-.449-4.933l-.637,0h-5.178V16.5h1.361v2.278h-1.361v1.35h1.361l0,4.229h1.577V20.124h1.63l2.306,4.219Zm-24.027-9.2v1.344h1.355V21.6l-4.257-6.457H167.3v1.344h1.362V24.35H170.2V17.86l4.3,6.489h1.473V16.491h1.337V15.148Zm26.982,4.988v4.211h1.6V20.134h1.345V18.781h-1.344V15.146h-1.6v3.635H198.7v1.352Zm15.248.012v4.213h6.308V22.929h-4.731v-2.78H220.1V18.8h-3.219V16.6h4.548V15.16h-7.5v1.454l1.373-.01V18.8h-1.372v1.349Zm-34.883,0,0,4.213h6.308V22.929H182v-2.78h3.22V18.8H182V16.6h4.549V15.16h-7.5v1.454l1.373-.01V18.8H179.05v1.349Zm-20.819,0,0,4.213h6.308V22.929h-4.731v-2.78h3.22V18.8h-3.22V16.6h4.549V15.16h-7.5v1.454l1.373-.01V18.8h-1.373v1.349ZM205.34,15.16V16.6h1.378V18.8h-1.372v1.35l1.374,0v4.208h1.577V20.148h3.276V18.8h-3.276V16.607h4.276V15.16Z" transform="translate(-47.508 -4.852)" fill="#4a503b" fill-rule="evenodd"/>
    <path id="Trazado_1506" data-name="Trazado 1506" d="M59.179,18.754v1.359l1.384-.005c.145,2.712,1.868,4.42,4.333,4.42,2.563,0,4.331-1.855,4.331-4.8,0-2.376-1.153-4.053-2.963-4.6l-.918,1.318c1.316.213,2.14,1.391,2.14,3.284,0,2.1-1.028,3.319-2.591,3.319-1.48,0-2.475-1.068-2.591-2.937h1.335v-1.35H62.375a2.58,2.58,0,0,1,2.037-2.311l-.945-1.306a4.2,4.2,0,0,0-2.846,3.617Zm-14.54,1.359V18.754H43.3V15.141h-1.6v3.621H40.341v1.35h1.35l0,4.229h6.02V22.9H43.3V20.113Zm-9.674.016,0,4.212h1.6V20.127H37.91V18.774H36.566V15.139h-1.6v3.635H33.6v1.352Zm17.925,0V18.78H51.531V16.588H53.28c1.785,0,2.672,1.069,2.672,3.207,0,2.046-.9,3.1-2.646,3.1H51.53V20.139Zm-2.934.01,0,4.2h3.352c2.789,0,4.288-1.669,4.288-4.574,0-2.854-1.5-4.627-4.144-4.627H48.587v1.444h1.367V18.78H48.587v1.35ZM7.837,15.954v-.81H9.206V18.23h-1.4A2.272,2.272,0,0,0,5.6,16.449,2.6,2.6,0,0,0,3.145,18.78H4.424v1.351H3.075c.133,1.891,1.194,2.963,2.577,2.963A2.315,2.315,0,0,0,7.81,21.541l1.7.006a3.868,3.868,0,0,1-3.936,3.018c-2.476,0-4.136-1.632-4.271-4.433H0V18.772H1.369a4.123,4.123,0,0,1,4.214-3.755c.112,0,.224,0,.332.01a2.79,2.79,0,0,1,1.921.927m17.978,4.181h2.52a1.4,1.4,0,1,1-.013,2.789H25.815Zm0-3.6h2.168c.964,0,1.42.351,1.42,1.095a1.2,1.2,0,0,1-1.342,1.147H25.815Zm-2.934-.007h1.372v2.241h-1.37v1.35h1.372l0,4.223h4.123c2.046,0,3.141-1.042,3.141-2.814a2.257,2.257,0,0,0-1.694-2.255,1.8,1.8,0,0,0,1.212-1.8c0-1.473-1.03-2.333-3.05-2.333h-5.1Zm-2.816,3.844a10.541,10.541,0,0,1-1.217.449l1.3,3.519H18.5l-1.125-3.2a10.286,10.286,0,0,1-3.1.017L13.18,24.343H11.59l1.253-3.5a10.637,10.637,0,0,1-1.27-.457l.466-1.287a9.216,9.216,0,0,0,1.25.454l1.1-3.031h-1.4V15.142h5.663v1.392H17.271l1.113,3a9.27,9.27,0,0,0,1.209-.446Zm-5.33-.53,1.078-3.13,1.1,3.124A9.307,9.307,0,0,1,15.8,19.9a9.05,9.05,0,0,1-1.066-.059" transform="translate(0 -4.811)" fill="#4a503b" fill-rule="evenodd"/>
  </g>
</svg>
